<svg xmlns="http://www.w3.org/2000/svg" xmlns:xlink="http://www.w3.org/1999/xlink" viewBox="0 0 800 450">
  <!-- Sky -->
  <linearGradient id="sky" x1="0%" y1="0%" x2="0%" y2="100%">
    <stop offset="0%" style="stop-color:#75B9E6;stop-opacity:1" />
    <stop offset="100%" style="stop-color:#D4F0FF;stop-opacity:1" />
  </linearGradient>
  <rect width="800" height="450" fill="url(#sky)" />
  
  <!-- Sun -->
  <circle cx="670" cy="80" r="60" fill="#FFD700" />
  <circle cx="670" cy="80" r="70" fill="#FFD700" opacity="0.3" />
  
  <!-- Mountains in background -->
  <polygon points="0,200 150,100 300,180 450,90 600,170 800,120 800,450 0,450" fill="#7A9E7E" />
  
  <!-- Rice terraces -->
  <path d="M0,230 800,230 800,250 0,250 Z" fill="#7FBF7F" />
  <path d="M0,250 800,250 800,280 0,280 Z" fill="#6DB36D" />
  <path d="M0,280 800,280 800,320 0,320 Z" fill="#5CA75C" />
  <path d="M0,320 800,320 800,370 0,370 Z" fill="#4B9C4B" />
  <path d="M0,370 800,370 800,450 0,450 Z" fill="#3A913A" />
  
  <!-- Rice field texture -->
  <g opacity="0.7">
    <line x1="0" y1="230" x2="800" y2="230" stroke="#93D493" stroke-width="2" />
    <line x1="0" y1="250" x2="800" y2="250" stroke="#84C784" stroke-width="2" />
    <line x1="0" y1="280" x2="800" y2="280" stroke="#75BA75" stroke-width="2" />
    <line x1="0" y1="320" x2="800" y2="320" stroke="#66AD66" stroke-width="2" />
    <line x1="0" y1="370" x2="800" y2="370" stroke="#57A057" stroke-width="2" />
  </g>
  
  <!-- Horizontal lines in the fields -->
  <g stroke="#57A057" stroke-width="0.5" opacity="0.6">
    <line x1="0" y1="240" x2="800" y2="240" />
    <line x1="0" y1="260" x2="800" y2="260" />
    <line x1="0" y1="270" x2="800" y2="270" />
    <line x1="0" y1="290" x2="800" y2="290" />
    <line x1="0" y1="300" x2="800" y2="300" />
    <line x1="0" y1="310" x2="800" y2="310" />
    <line x1="0" y1="330" x2="800" y2="330" />
    <line x1="0" y1="340" x2="800" y2="340" />
    <line x1="0" y1="350" x2="800" y2="350" />
    <line x1="0" y1="360" x2="800" y2="360" />
    <line x1="0" y1="380" x2="800" y2="380" />
    <line x1="0" y1="390" x2="800" y2="390" />
    <line x1="0" y1="400" x2="800" y2="400" />
    <line x1="0" y1="410" x2="800" y2="410" />
    <line x1="0" y1="420" x2="800" y2="420" />
    <line x1="0" y1="430" x2="800" y2="430" />
    <line x1="0" y1="440" x2="800" y2="440" />
  </g>

  <!-- Trees on the left -->
  <g transform="translate(100, 220)">
    <ellipse cx="0" cy="0" rx="15" ry="25" fill="#207020" />
    <ellipse cx="0" cy="-15" rx="12" ry="20" fill="#2D882D" />
    <rect x="-2" y="25" width="4" height="10" fill="#5D4037" />
  </g>
  <g transform="translate(70, 210)">
    <ellipse cx="0" cy="0" rx="12" ry="20" fill="#207020" />
    <ellipse cx="0" cy="-12" rx="10" ry="15" fill="#2D882D" />
    <rect x="-2" y="20" width="4" height="10" fill="#5D4037" />
  </g>
  <g transform="translate(130, 215)">
    <ellipse cx="0" cy="0" rx="12" ry="20" fill="#207020" />
    <ellipse cx="0" cy="-12" rx="10" ry="15" fill="#2D882D" />
    <rect x="-2" y="20" width="4" height="10" fill="#5D4037" />
  </g>
  
  <!-- Trees on the right -->
  <g transform="translate(650, 220)">
    <ellipse cx="0" cy="0" rx="15" ry="25" fill="#207020" />
    <ellipse cx="0" cy="-15" rx="12" ry="20" fill="#2D882D" />
    <rect x="-2" y="25" width="4" height="10" fill="#5D4037" />
  </g>
  <g transform="translate(680, 215)">
    <ellipse cx="0" cy="0" rx="12" ry="20" fill="#207020" />
    <ellipse cx="0" cy="-12" rx="10" ry="15" fill="#2D882D" />
    <rect x="-2" y="20" width="4" height="10" fill="#5D4037" />
  </g>
  <g transform="translate(620, 210)">
    <ellipse cx="0" cy="0" rx="12" ry="20" fill="#207020" />
    <ellipse cx="0" cy="-12" rx="10" ry="15" fill="#2D882D" />
    <rect x="-2" y="20" width="4" height="10" fill="#5D4037" />
  </g>
  
  <!-- Farmer with bull plowing field -->
  <g transform="translate(400, 310)">
    <!-- Bull -->
    <ellipse cx="0" cy="0" rx="25" ry="15" fill="#8B4513" />
    <ellipse cx="-15" cy="-15" rx="10" ry="8" fill="#8B4513" />
    <rect x="-25" y="0" width="5" height="20" fill="#8B4513" />
    <rect x="-15" y="0" width="5" height="20" fill="#8B4513" />
    <rect x="10" y="0" width="5" height="20" fill="#8B4513" />
    <rect x="20" y="0" width="5" height="20" fill="#8B4513" />
    
    <!-- Plow -->
    <line x1="25" y1="0" x2="40" y2="0" stroke="#8B4513" stroke-width="3" />
    <path d="M40,0 L50,5 L50,-5 Z" fill="#8B4513" />
    
    <!-- Farmer -->
    <circle cx="50" cy="-10" r="7" fill="#CD853F" />
    <rect x="47" y="-3" width="6" height="15" fill="#556B2F" />
    <line x1="47" y1="0" x2="40" y2="0" stroke="#556B2F" stroke-width="2" />
    <line x1="53" y1="0" x2="60" y2="0" stroke="#556B2F" stroke-width="2" />
    <rect x="47" y="12" width="3" height="10" fill="#CD853F" />
    <rect x="50" y="12" width="3" height="10" fill="#CD853F" />
  </g>
  
  <!-- Rice plants in foreground -->
  <g transform="translate(0, 0)">
    <!-- Multiple rows of rice plants -->
    <g transform="translate(200, 380)">
      <g fill="#74B674">
        <path d="M-5,-10 L0,-25 L5,-10 Z" />
        <path d="M-8,-5 L0,-20 L8,-5 Z" />
        <path d="M-10,0 L0,-15 L10,0 Z" />
      </g>
      <line x1="0" y1="-10" x2="0" y2="5" stroke="#D2B48C" stroke-width="1" />
    </g>
    <g transform="translate(220, 385)">
      <g fill="#74B674">
        <path d="M-5,-10 L0,-25 L5,-10 Z" />
        <path d="M-8,-5 L0,-20 L8,-5 Z" />
        <path d="M-10,0 L0,-15 L10,0 Z" />
      </g>
      <line x1="0" y1="-10" x2="0" y2="5" stroke="#D2B48C" stroke-width="1" />
    </g>
    <g transform="translate(240, 390)">
      <g fill="#74B674">
        <path d="M-5,-10 L0,-25 L5,-10 Z" />
        <path d="M-8,-5 L0,-20 L8,-5 Z" />
        <path d="M-10,0 L0,-15 L10,0 Z" />
      </g>
      <line x1="0" y1="-10" x2="0" y2="5" stroke="#D2B48C" stroke-width="1" />
    </g>
    <g transform="translate(180, 390)">
      <g fill="#74B674">
        <path d="M-5,-10 L0,-25 L5,-10 Z" />
        <path d="M-8,-5 L0,-20 L8,-5 Z" />
        <path d="M-10,0 L0,-15 L10,0 Z" />
      </g>
      <line x1="0" y1="-10" x2="0" y2="5" stroke="#D2B48C" stroke-width="1" />
    </g>
  </g>
  
  <!-- Rice plants on the other side -->
  <g transform="translate(0, 0)">
    <g transform="translate(500, 380)">
      <g fill="#74B674">
        <path d="M-5,-10 L0,-25 L5,-10 Z" />
        <path d="M-8,-5 L0,-20 L8,-5 Z" />
        <path d="M-10,0 L0,-15 L10,0 Z" />
      </g>
      <line x1="0" y1="-10" x2="0" y2="5" stroke="#D2B48C" stroke-width="1" />
    </g>
    <g transform="translate(520, 385)">
      <g fill="#74B674">
        <path d="M-5,-10 L0,-25 L5,-10 Z" />
        <path d="M-8,-5 L0,-20 L8,-5 Z" />
        <path d="M-10,0 L0,-15 L10,0 Z" />
      </g>
      <line x1="0" y1="-10" x2="0" y2="5" stroke="#D2B48C" stroke-width="1" />
    </g>
    <g transform="translate(540, 390)">
      <g fill="#74B674">
        <path d="M-5,-10 L0,-25 L5,-10 Z" />
        <path d="M-8,-5 L0,-20 L8,-5 Z" />
        <path d="M-10,0 L0,-15 L10,0 Z" />
      </g>
      <line x1="0" y1="-10" x2="0" y2="5" stroke="#D2B48C" stroke-width="1" />
    </g>
    <g transform="translate(560, 395)">
      <g fill="#74B674">
        <path d="M-5,-10 L0,-25 L5,-10 Z" />
        <path d="M-8,-5 L0,-20 L8,-5 Z" />
        <path d="M-10,0 L0,-15 L10,0 Z" />
      </g>
      <line x1="0" y1="-10" x2="0" y2="5" stroke="#D2B48C" stroke-width="1" />
    </g>
  </g>
  
  <!-- Traditional hut in background -->
  <g transform="translate(320, 200)">
    <!-- Hut base -->
    <rect x="-25" y="0" width="50" height="30" fill="#D2B48C" />
    <!-- Hut roof -->
    <polygon points="-30,0 30,0 0,-25" fill="#8B4513" />
    <!-- Door -->
    <rect x="-5" y="10" width="10" height="20" fill="#5D4037" />
  </g>

  <!-- Small clouds -->
  <g fill="white" opacity="0.8">
    <ellipse cx="150" cy="70" rx="40" ry="25" />
    <ellipse cx="180" cy="70" rx="35" ry="20" />
    <ellipse cx="120" cy="70" rx="30" ry="15" />
    
    <ellipse cx="450" cy="50" rx="50" ry="30" />
    <ellipse cx="490" cy="50" rx="40" ry="25" />
    <ellipse cx="410" cy="50" rx="35" ry="20" />
    
    <ellipse cx="320" cy="100" rx="35" ry="20" />
    <ellipse cx="350" cy="100" rx="30" ry="15" />
    <ellipse cx="290" cy="100" rx="25" ry="12" />
  </g>
  
  <!-- Water reflections in the rice fields -->
  <g fill="#75B9E6" opacity="0.3">
    <rect x="50" y="300" width="20" height="10" />
    <rect x="150" y="330" width="30" height="15" />
    <rect x="300" y="350" width="40" height="10" />
    <rect x="450" y="320" width="25" height="12" />
    <rect x="600" y="340" width="35" height="15" />
    <rect x="700" y="360" width="30" height="10" />
    <rect x="250" y="380" width="20" height="8" />
    <rect x="550" y="370" width="15" height="5" />
  </g>
</svg>